<svg data-v-0dd9719b="" version="1.0" xmlns="http://www.w3.org/2000/svg" xmlns:xlink="http://www.w3.org/1999/xlink" width="100%" height="100%" viewBox="0 0 340.000000 250.000000" preserveAspectRatio="xMidYMid meet" color-interpolation-filters="sRGB" style="margin: auto;"> <rect data-v-0dd9719b="" x="0" y="0" width="100%" height="100%" fill="#fff" fill-opacity="1" class="background"></rect> <rect data-v-0dd9719b="" x="0" y="0" width="100%" height="100%" fill="url(#watermark)" fill-opacity="1" class="watermarklayer"></rect> <g data-v-0dd9719b="" fill="#333" class="icon-text-wrapper icon-svg-group iconsvg" transform="translate(49.18000030517578,96.89374923706055)"><g class="iconsvg-imagesvg" transform="translate(0,7.005641937255859)"><g><rect fill="#333" fill-opacity="0" stroke-width="2" x="0" y="0" width="60" height="42.20121539500338" class="image-rect"></rect> <svg x="0" y="0" width="60" height="42.20121539500338" filtersec="colorsb1849603057" class="image-svg-svg primary" style="overflow: visible;"><svg xmlns="http://www.w3.org/2000/svg" viewBox="0 -0.026959329843521118 142.30999755859375 100.09452819824219"><path d="M42.78 42.62a158.46 158.46 0 0 0 35.8-2.81l-.83-.13c-10.12-2.35-22.3-5-35.29-7.64a50 50 0 0 0-2.39 8.29c-9.93.42-28.43-.38-28.43-.38 12.51 1.16 17.12 2.21 28.05 2.58 1.04.04 2.06.07 3.09.09z" fill="#362416"></path><path d="M137 52.74C117.86 49.59 90.26 76 79.87 75.21c-7 0-13.1-2.76-18.32-6.81-.47.32-.93.66-1.41 1 .41-.39.83-.76 1.25-1.12-1.19-.93-2.32-1.92-3.42-3q2 1.38 3.91 2.52c14.25-12.09 32.35-15.14 40.28-19.3a1.6 1.6 0 0 0 0-2.82c-4-2.24-12.32-4.1-23.29-5.81C67 44 53.81 45.46 39.4 44.82c-.13 1.32-.22 2.65-.25 4-5.92.25-14.71-.16-14.71-.16 7.56.69 7.86 1.35 14.7 1.8l1.77.11c15.43 1 29.47.79 43.9-2.3-13.43 4.79-28.64 5.84-45.62 4 .05 1.17.15 2.33.28 3.48-4.32.17-5.87.31-5.87.31 4.48.48 1.93.94 6.08 1.32l1.92.17c14.07 1.19 26.59 1.35 39.48-1.84-12 4.94-25.69 5.63-41.17 3.12a50 50 0 0 0 98.62-1c.15-1-.14-3.53 3.78-3a12.43 12.43 0 0 0-5.31-2.09z" fill="#362416"></path><path d="M83.92 38.2c17.2-.48 38.51-2.56 49 2.11 2.47 1.1 6.6 5.28 8.09 7.85-.26-2.62-2.34-5.18-2.49-6.09a50 50 0 0 0-93.92-14.8A148 148 0 0 0 0 22.52c25.41 2.14 21.85 3.14 43.18 7.76l1.5.33c12.28 2.66 23.73 5.13 34.2 6.74 1.75.27 3.43.55 5.04.85z" fill="#f59023"></path><path d="M84.45 38.3c8.15 1.53 14.54 3.42 18.8 5.38a3.66 3.66 0 0 1-.08 6.69c-14.63 6.32-24.06 6-41 17.63 7.16 4.3 12.95 6 18.27 5.16 12-1.21 34.91-26.83 58.73-22.53v-.57C135.76 36.52 103.36 39 84.45 38.3zm41.1 7.88c-1.42-.07-5.67-4-5.67-4l10.28 2.16c-.43 1.02-1.22 2.02-4.61 1.84z" fill="#362416"></path></svg></svg> <!----></g></g> <g transform="translate(67,0)"><g data-gra="path-name" fill-rule="" class="tp-name iconsvg-namesvg" transform="translate(0,0)"><g transform="scale(1)"><g><path d="M11.69-20.26L11.69-20.26 9.84-17.49Q6.72-19.69 1.58-22.37L1.58-22.37 3.43-24.79Q8.88-22.1 11.69-20.26ZM5.71 2.77L5.71 2.77 2.9 0.57Q7.38-5.71 11.25-13.49L11.25-13.49Q11.34-13.62 11.38-13.75L11.38-13.75 13.8-11.56Q10.11-4.04 5.71 2.77ZM27.69-12.08L27.69-22.28 19.78-22.28 19.78-12.08 27.69-12.08ZM30.76-25.36L30.76-9.1 19.78-9.1 19.78-5.98 16.7-5.98 16.7-25.36 30.76-25.36ZM13.97-34.8L43.15-34.8 43.15-31.55 39.68-31.55 39.68-1.41Q39.68 1.58 37.97 2.42L37.97 2.42Q37.66 2.59 37.31 2.68L37.31 2.68Q35.2 3.34 27.42 3.34L27.42 3.34Q27.11 1.71 26.1-0.18L26.1-0.18Q28.78-0.09 35.02-0.09L35.02-0.09Q36.21-0.13 36.34-0.92L36.34-0.92Q36.39-1.19 36.39-1.45L36.39-1.45 36.39-31.55 13.97-31.55 13.97-32.17 12.04-29.53Q9.1-31.6 3.69-34.58L3.69-34.58 5.58-37Q10.72-34.32 13.97-32.26L13.97-32.26 13.97-34.8ZM79.01-8.13L79.01-5.36 68.99-5.36 68.99 2.55 65.79 2.55 65.79-5.36 56.12-5.36 56.12-8.13 65.79-8.13 65.79-12.7 57.04-12.7 57.04-15.42 61.79-15.42Q61.04-18.15 59.33-20.74L59.33-20.74 61.96-21.4Q63.9-18.59 64.56-16.22L64.56-16.22 62.14-15.42 70.18-15.42Q71.76-18.54 72.77-21.62L72.77-21.62 75.76-20.92Q74.58-18.24 73.17-15.42L73.17-15.42 78.27-15.42 78.27-12.7 68.99-12.7 68.99-8.13 79.01-8.13ZM87.23-33.18L87.23-30.01 68.86-30.01Q68.73-28.96 68.38-26.89L68.38-26.89Q68.2-25.75 68.12-25.22L68.12-25.22 84.81-25.22 84.81-0.44Q84.81 1.98 83.45 2.72L83.45 2.72Q83.14 2.86 82.88 2.94L82.88 2.94Q81.3 3.47 75.28 3.47L75.28 3.47Q74.88 1.98 74.09 0.44L74.09 0.44Q78.44 0.66 80.42 0.53L80.42 0.53Q81.34 0.13 81.43-0.44L81.43-0.44 81.43-22.15 53.61-22.15 53.61 3.43 50.32 3.43 50.32-25.22 64.95-25.22Q65.17-26.76 65.52-30.01L65.52-30.01 47.9-30.01 47.9-33.18 65.83-33.18Q66.09-36.52 66.14-37.71L66.14-37.71 69.74-37.31Q69.61-35.95 69.26-33.18L69.26-33.18 87.23-33.18ZM124.41-0.48L124.41-0.48 129.02-0.48Q129.95-0.48 130.25-1.71L130.25-1.71Q130.56-2.94 130.65-6.99L130.65-6.99Q131.66-6.11 133.73-5.49L133.73-5.49Q133.46 0.18 132.14 1.71L132.14 1.71Q131.18 2.77 129.24 2.77L129.24 2.77 123.93 2.77Q120.94 2.77 120.06 1.32L120.06 1.32Q119.4 0.18 119.4-2.37L119.4-2.37 119.4-22.85 109.07-22.85Q108.02-10.77 103.27-4.22L103.27-4.22Q99.8 0.53 94.13 3.43L94.13 3.43Q93.34 2.02 91.85 0.88L91.85 0.88Q91.71 0.79 91.67 0.75L91.67 0.75Q100.81-3.6 103.84-13.23L103.84-13.23Q105.16-17.31 105.6-22.85L105.6-22.85 93.74-22.85 93.74-26.19 105.82-26.19Q106-30.89 106-37.18L106-37.18 109.51-37.18Q109.42-28.56 109.29-26.19L109.29-26.19 122.74-26.19 122.74-2.33Q122.74-0.83 123.31-0.62L123.31-0.62Q123.71-0.48 124.41-0.48ZM137.37-8.48L167.56-8.48 167.56-5.49 137.37-5.49 137.37-8.48ZM146.69-30.28L146.69-16.79 176.22-16.79Q176.22-16.74 176.13-15.29L176.13-15.29Q175.25-2.02 173.72 0.92L173.72 0.92Q173.41 1.45 173.1 1.8L173.1 1.8Q171.96 3.08 169.94 3.21L169.94 3.21Q167.74 3.38 164.22 3.16L164.22 3.16Q164.14 1.71 163.26 0.09L163.26 0.09Q165.54 0.35 168.66 0.35L168.66 0.35Q169.8 0.31 170.33-0.18L170.33-0.18Q171.91-1.67 172.79-13.45L172.79-13.45Q172.79-13.62 172.79-13.71L172.79-13.71 143.39-13.71 143.39-33.35 153.33-33.35Q154.38-35.68 155.04-37.79L155.04-37.79 158.86-37.31Q158.07-35.46 156.75-33.35L156.75-33.35 171.39-33.35Q171.39-33.31 171.3-31.99L171.3-31.99Q170.55-22.76 169.37-20.79L169.37-20.79Q169.15-20.48 168.97-20.26L168.97-20.26Q168.05-19.25 166.51-19.12L166.51-19.12Q165.1-18.98 162.38-19.12L162.38-19.12Q162.29-20.79 161.5-22.1L161.5-22.1Q163.61-21.93 165.06-21.93L165.06-21.93Q165.98-21.97 166.42-22.37L166.42-22.37Q167.39-23.47 168.09-30.28L168.09-30.28 146.69-30.28ZM160.84-23.47L160.84-23.47 158.99-21.09Q155.65-23.55 149.9-26.19L149.9-26.19 151.74-28.21Q158.03-25.44 160.84-23.47Z" transform="translate(-1.5799999237060547, 37.790000915527344)"></path></g> <!----> <!----> <!----> <!----> <!----> <!----> <!----></g></g> <g data-gra="path-slogan" fill-rule="" class="tp-slogan iconsvg-slogansvg" fill="#333" transform="translate(41.82500076293945,47.26000213623047)"><!----> <!----> <g transform="scale(1, 1)"><g transform="scale(1)"><path d="M2.06-5.06L6.56-5.06L6.56-8.58L7.73-8.58L7.73 0L6.56 0L6.56-3.98L2.06-3.98L2.06 0L0.89 0L0.89-8.58L2.06-8.58L2.06-5.06ZM10.83-1.03L15.98-1.03L15.98 0L9.66 0L9.66-8.58L15.89-8.58L15.89-7.59L10.83-7.59L10.83-4.92L15.52-4.92L15.52-3.89L10.83-3.89L10.83-1.03ZM18.89-8.58L23.20-1.64L23.20-8.58L24.33-8.58L24.33 0L23.02 0L18.66-6.94L18.61-6.94L18.61 0L17.48 0L17.48-8.58L18.89-8.58ZM31.78 0L30.94-2.48L27.47-2.48L26.58 0L25.41 0L28.64-8.58L29.95-8.58L33.05 0L31.78 0ZM29.20-7.31L27.84-3.52L30.52-3.52L29.25-7.31L29.20-7.31ZM35.48-8.58L39.80-1.64L39.80-8.58L40.92-8.58L40.92 0L39.61 0L35.25-6.94L35.20-6.94L35.20 0L34.08 0L34.08-8.58L35.48-8.58ZM45.33-1.92L45.33-2.77L46.41-2.77L46.41-2.16Q46.41-0.75 47.72-0.75L47.72-0.75Q49.08-0.75 49.08-2.25L49.08-2.25L49.08-8.58L50.25-8.58L50.25-2.30Q50.20 0.09 47.77 0.14L47.77 0.14Q45.47 0.09 45.33-1.92L45.33-1.92ZM52.22-8.58L53.39-8.58L53.39 0L52.22 0L52.22-8.58ZM61.03-3.19L61.03-8.58L62.20-8.58L62.20-3.05Q62.06 0.05 58.69 0.14L58.69 0.14Q55.55 0.05 55.41-2.86L55.41-2.86L55.41-8.58L56.58-8.58L56.58-3.19Q56.63-0.84 58.73-0.80L58.73-0.80Q61.03-0.84 61.03-3.19L61.03-3.19ZM65.39-8.58L69.70-1.64L69.70-8.58L70.83-8.58L70.83 0L69.52 0L65.16-6.94L65.11-6.94L65.11 0L63.98 0L63.98-8.58L65.39-8.58ZM72.80-8.58L73.97-8.58L73.97 0L72.80 0L72.80-8.58ZM81.61 0L80.77-2.48L77.30-2.48L76.41 0L75.23 0L78.47-8.58L79.78-8.58L82.88 0L81.61 0ZM79.03-7.31L77.67-3.52L80.34-3.52L79.08-7.31L79.03-7.31ZM90.70-4.27L90.70-4.27Q90.52-7.64 87.70-7.83L87.70-7.83Q84.84-7.69 84.70-4.27L84.70-4.27Q84.84-0.94 87.70-0.80L87.70-0.80Q90.52-0.98 90.70-4.27ZM91.88-4.27L91.88-4.27Q91.59 0 87.70 0.14L87.70 0.14Q83.77 0 83.48-4.27L83.48-4.27Q83.72-8.72 87.70-8.81L87.70-8.81Q91.59-8.67 91.88-4.27Z" transform="translate(-0.890625, 8.8125)"></path></g></g></g></g></g><defs v-gra="od"></defs></svg>